<svg xmlns="http://www.w3.org/2000/svg" width="250" height="250" viewBox="0 0 250 250">
  <!-- Background -->
  <rect width="250" height="250" fill="#2a2a2a"/>
  
  <!-- Person Silhouette -->
  <g fill="#d4af37" opacity="0.7">
    <!-- Head -->
    <circle cx="125" cy="83" r="42"/>
    
    <!-- Body -->
    <path d="M125,125 C88,125 60,142 55,190 L55,250 L195,250 L195,190 C190,142 162,125 125,125 Z"/>
  </g>
  
  <!-- Chess piece overlay -->
  <g fill="#d4af37" opacity="0.2">
    <path d="M125,20 C115,20 105,25 105,35 C105,40 108,44 112,46 C103,50 97,58 97,68 C97,80 105,90 117,93 C110,97 105,105 105,115 C105,130 115,140 125,140 C135,140 145,130 145,115 C145,105 140,97 133,93 C145,90 153,80 153,68 C153,58 147,50 138,46 C142,44 145,40 145,35 C145,25 135,20 125,20 Z"/>
  </g>
</svg>